{"title":"Repo-The Genetic Opera-720p MP4 AAC BRRip 2008-CC","uid":7096122,"size":2060275503,"categoryP":"video","categoryS":"hd___movies","magnet":"?xt=urn:btih:ed246399888520522b5fbfb88ce10b0e290edb9b&amp;dn=Repo-The+Genetic+Opera-720p+MP4+AAC+BRRip+2008-CC&amp;tr=udp%3A%2F%2Ftracker.openbittorrent.com%3A80&amp;tr=udp%3A%2F%2Fopen.demonii.com%3A1337&amp;tr=udp%3A%2F%2Ftracker.coppersurfer.tk%3A6969&amp;tr=udp%3A%2F%2Fexodus.desync.com%3A6969","seeders":29,"leechers":7,"uploader":"Caveman44","files":-1,"time":1331560159,"description":"Source: Repo.The.Genetic.Opera.2008.1080p.BluRay.x264-SECTOR7\n\nSubs: Danish, Dutch, English, Greek, Italian, Norwegian, Portuguese and Swedish.\n\nSample and Screens included.\n\nGeneral\nComplete name                    : Repo-The Genetic Opera-720p MP4 AAC BRRip 2008-CC.mp4\nFormat                           : MPEG-4\nFormat profile                   : Base Media\nCodec ID                         : isom\nFile size                        : 1.89 GiB\nDuration                         : 1h 37mn\nOverall bit rate                 : 2 770 Kbps\nEncoded date                     : UTC 2012-03-11 07:06:54\n\nVideo\nID                               : 1\nFormat                           : AVC\nFormat/Info                      : Advanced Video Codec\nFormat profile                   : &lt;a class=&quot;__cf_email__&quot; href=&quot;/cdn-cgi/l/email-protection&quot; data-cfemail=&quot;6921000e0129255a4758&quot;&gt;[email&amp;#160;protected]&lt;/a&gt;&lt;script cf-hash='f9e31' type=&quot;text/javascript&quot;&gt;\n/* &lt;![CDATA[ */!function(){try{var t=&quot;currentScript&quot;in document?document.currentScript:function(){for(var t=document.getElementsByTagName(&quot;script&quot;),e=t.length;e--;)if(t[e].getAttribute(&quot;cf-hash&quot;))return t[e]}();if(t&amp;&amp;t.previousSibling){var e,r,n,i,c=t.previousSibling,a=c.getAttribute(&quot;data-cfemail&quot;);if(a){for(e=&quot;&quot;,r=parseInt(a.substr(0,2),16),n=2;a.length-n;n+=2)i=parseInt(a.substr(n,2),16)^r,e+=String.fromCharCode(i);e=document.createTextNode(e),c.parentNode.replaceChild(e,c)}}}catch(u){}}();/* ]]&gt; */&lt;/script&gt;\nFormat settings, CABAC           : Yes\nFormat settings, ReFrames        : 5 frames\nCodec ID                         : avc1\nCodec ID/Info                    : Advanced Video Coding\nDuration                         : 1h 37mn\nBit rate mode                    : Variable\nBit rate                         : 2 317 Kbps\nNominal bit rate                 : 2 350 Kbps\nMaximum bit rate                 : 13.1 Mbps\nWidth                            : 1 280 pixels\nHeight                           : 688 pixels\nDisplay aspect ratio             : 16:9\nFrame rate mode                  : Variable\nFrame rate                       : 23.976 fps\nMinimum frame rate               : 15.873 fps\nMaximum frame rate               : 24.390 fps\nResolution                       : 24 bits\nColorimetry                      : 4:2:0\nScan type                        : Progressive\nBits/(Pixel*Frame)               : 0.110\nStream size                      : 1.58 GiB (84%)\nWriting library                  : x264 core 112\n\nAudio\nID                               : 2\nFormat                           : AAC\nFormat/Info                      : Advanced Audio Codec\nFormat version                   : Version 4\nFormat profile                   : LC\nFormat settings, SBR             : No\nCodec ID                         : 40\nDuration                         : 1h 37mn\nBit rate mode                    : Variable\nBit rate                         : 448 Kbps\nMaximum bit rate                 : 884 Kbps\nChannel(s)                       : 6 channels\nChannel positions                : Front: L C R, Rear: L R, LFE\nSampling rate                    : 48.0 KHz\nResolution                       : 16 bits\nStream size                      : 313 MiB (16%)\n","torrent":{"xt":"urn:btih:ed246399888520522b5fbfb88ce10b0e290edb9b","amp;dn":"Repo-The+Genetic+Opera-720p+MP4+AAC+BRRip+2008-CC","amp;tr":["udp%3A%2F%2Ftracker.openbittorrent.com%3A80","udp%3A%2F%2Fopen.demonii.com%3A1337","udp%3A%2F%2Ftracker.coppersurfer.tk%3A6969","udp%3A%2F%2Fexodus.desync.com%3A6969"],"infoHash":"ed246399888520522b5fbfb88ce10b0e290edb9b","infoHashBuffer":{"type":"Buffer","data":[237,36,99,153,136,133,32,82,43,95,191,184,140,225,11,14,41,14,219,155]},"announce":[],"urlList":[]}}